<svg width="56" height="27" viewBox="0 0 56 27" fill="none" xmlns="http://www.w3.org/2000/svg">
<mask id="path-1-outside-1_102_306" maskUnits="userSpaceOnUse" x="-1.01172" y="-1.00806" width="58" height="29" fill="black">
<rect fill="white" x="-1.01172" y="-1.00806" width="58" height="29"/>
<path d="M55.9807 26.7837C55.9278 26.6924 55.8556 26.6058 55.7785 26.5289C55.9037 24.7786 55.3693 22.9513 54.3631 21.5184C53.097 19.7152 51.1231 18.7583 49.1252 17.9745C48.4897 17.7244 47.8494 17.484 47.2139 17.234C46.8913 17.1089 46.5736 16.9887 46.2558 16.8589C46.0199 16.7627 45.7888 16.6377 45.5433 16.5848C45.24 16.3636 44.9415 16.1424 44.6334 15.926C45.0185 15.8828 45.4037 15.8491 45.7888 15.8251C46.4051 16.3348 47.1754 16.6714 47.9119 16.9647C48.7352 17.2917 49.6018 17.5273 50.4732 17.6763C52.1919 17.9697 53.9491 17.936 55.6533 17.5657C55.7593 17.5417 55.8026 17.4311 55.7785 17.3397C55.8844 17.3349 55.9326 17.1955 55.8363 17.133C55.6774 17.0272 55.5041 16.9454 55.326 16.8733C54.0935 15.7673 52.5481 15.022 50.9064 14.7768C49.2166 14.5267 47.5124 14.796 45.9477 15.4596C45.8899 15.4836 45.8562 15.5269 45.8466 15.5702C45.3652 15.6183 44.8789 15.6808 44.4023 15.7673C41.8556 14.017 39.1018 12.5697 36.1602 11.6031C35.5488 11.4012 34.9278 11.2281 34.3019 11.0694C34.5282 10.9444 34.7544 10.8194 34.9952 10.7136C35.0529 10.6895 35.1107 10.6655 35.1685 10.6414C35.5344 10.5597 35.9051 10.4683 36.2806 10.4395C36.7331 10.4058 37.1857 10.425 37.6334 10.4828C38.5674 10.6126 39.4677 10.9155 40.3487 11.2473C42.1348 11.9253 43.9498 12.7572 45.9092 12.5552C46.3473 12.512 46.7854 12.4158 47.1946 12.2523C47.5749 12.1032 48.0419 11.8965 48.2875 11.5551C48.3308 11.4925 48.2826 11.406 48.2104 11.3868C48.2056 11.3627 48.1912 11.3387 48.1671 11.3242C48.119 11.2906 48.066 11.2617 48.0179 11.2329C47.8205 10.9492 47.5653 10.6943 47.315 10.4683C46.9828 10.1654 46.6217 9.89611 46.2414 9.66049C45.4663 9.17964 44.5901 8.84785 43.6994 8.6507C41.9615 8.26601 40.1513 8.40546 38.4422 8.8767C37.9752 9.00653 37.5179 9.15078 37.0653 9.31908C36.6898 9.45853 36.295 9.59798 35.934 9.7807C35.5536 9.87207 35.1926 10.0404 34.8555 10.2327C34.6293 10.3577 34.4126 10.502 34.2104 10.6559C34.1864 10.6751 34.1623 10.6943 34.1382 10.7136C33.9986 10.7809 33.8638 10.853 33.7338 10.9299C30.9078 10.2664 27.9855 10.0067 25.0825 10.0836C25.304 9.88649 25.5062 9.65568 25.7228 9.45372C25.8769 9.30947 26.0357 9.17483 26.1946 9.04019C27.6245 9.09308 29.1554 8.80938 30.4601 8.22273C31.7407 7.64571 32.8528 6.65996 33.3535 5.32799C33.392 5.22701 33.3053 5.12603 33.2139 5.09718C31.7359 4.61151 30.1183 4.73173 28.7269 5.42897C27.2923 6.14544 26.2091 7.44375 25.7324 8.97287C25.7276 8.9921 25.7276 9.00653 25.7276 9.02095C25.6506 9.09308 25.5688 9.15559 25.4917 9.22772C25.2125 9.49219 24.8996 9.76628 24.7022 10.0981C24.5529 10.1029 24.4037 10.1077 24.2593 10.1125C22.2661 10.2135 20.2826 10.4683 18.3232 10.8578C19.0598 9.31427 19.989 7.87652 21.0722 6.56859C22.3384 6.78017 23.6527 6.21757 24.6974 5.53476C26.0117 4.67883 27.0516 3.49593 28.0963 2.34188C28.7366 1.63502 29.3865 0.932975 30.1038 0.303055C30.282 0.144373 30.0172 -0.120097 29.839 0.0433932C29.8294 0.0530103 29.8198 0.0626274 29.8053 0.0722445C29.7861 0.077053 29.7668 0.0866701 29.7476 0.0914786C26.7146 -0.0864377 23.7008 1.46672 21.9195 3.88061C21.3659 4.63556 20.9422 5.47224 20.6004 6.34259C20.5811 6.39068 20.5859 6.43395 20.6004 6.46761C20.5474 6.55898 20.4945 6.65515 20.4319 6.7417C20.3693 6.83787 20.2923 6.92443 20.2345 7.02541C20.2104 7.06868 20.1767 7.12639 20.1575 7.1889C19.9793 7.41971 19.806 7.65533 19.6375 7.89094C18.9539 8.85746 18.3521 9.88649 17.837 10.954C17.6637 10.9925 17.4903 11.0309 17.317 11.0694C17.2881 11.0646 17.2641 11.0598 17.2352 11.055C17.1437 11.0405 17.0715 11.079 17.0282 11.1367C15.4683 11.4925 13.9229 11.9205 12.4064 12.4254C8.59351 13.6949 4.86724 15.3634 1.36724 17.3349C0.924323 17.585 0.510293 17.8879 0.0770055 18.1572C-0.125195 18.2822 0.052934 18.5803 0.264763 18.4746C0.722122 18.2437 1.19392 18.0466 1.64165 17.8062C2.07976 17.5754 2.51304 17.3397 2.95115 17.1137C3.84179 16.6473 4.73244 16.1905 5.63753 15.7577C7.43808 14.8922 9.27233 14.0988 11.1499 13.4063C13.2008 12.6466 15.2998 12.0167 17.4326 11.5358C18.121 11.7137 18.8095 11.8724 19.4931 12.0696C20.273 12.2956 21.0481 12.5456 21.8088 12.8293C22.1747 12.964 22.5309 13.1082 22.892 13.2621C22.9931 13.3535 23.0846 13.4544 23.1712 13.5602C23.022 14.1757 22.815 14.7576 22.5502 15.3394C22.2517 15.9982 21.9195 16.6569 21.7751 17.3734C21.491 18.7631 22.0832 20.1143 22.6368 21.3597C22.8005 21.7299 22.969 22.105 23.1086 22.4897C23.2579 22.8888 23.3108 23.3168 23.4505 23.7111C23.4697 23.7688 23.5082 23.8072 23.5516 23.8361C23.5516 23.8409 23.5516 23.8505 23.5516 23.8553C23.5323 23.9996 23.7104 24.0861 23.7923 23.9515C24.2159 23.2783 24.3652 22.3983 24.5144 21.629C24.6733 20.8115 24.7648 19.9844 24.7888 19.1526C24.8129 18.3207 24.7696 17.4936 24.654 16.6714C24.5433 15.8828 24.3892 15.0845 24.0522 14.3536C23.9223 14.0699 23.7538 13.7958 23.5564 13.5554C24.4759 13.9641 25.3714 14.4161 26.2379 14.9307C27.4223 15.6327 28.5392 16.4454 29.5646 17.359C29.4346 18.0226 29.4298 18.739 29.5261 19.3882C29.6417 20.1624 29.9931 20.85 30.4745 21.4607C31.0089 22.1291 31.6637 22.7205 32.3184 23.2687C33.0454 23.8746 33.806 24.4708 34.6196 24.9565C34.8507 25.0959 35.0433 24.8363 34.9615 24.6343C35.2166 24.4804 35.2214 24.0765 35.2551 23.8072C35.2888 23.4947 35.2937 23.1773 35.2696 22.8648C35.2166 22.2252 35.0433 21.6049 34.7833 21.0183C34.2056 19.72 33.1609 18.7006 31.9525 17.9793C31.5963 17.7677 31.2207 17.585 30.8356 17.4263C30.5419 17.3061 30.2338 17.1811 29.9209 17.1185C29.8776 17.0801 29.839 17.0416 29.7957 17.0031C29.7957 16.9983 29.7957 16.9887 29.7957 16.9839C29.7957 16.931 29.7428 16.907 29.7042 16.9166C28.8184 16.1424 27.8604 15.45 26.8638 14.8297C28.4092 15.248 30.0075 15.2961 31.5192 14.5364C32.1403 14.2238 32.6747 13.7814 33.0887 13.2236C33.185 13.0938 33.0454 12.9495 32.9202 12.9399C31.1726 12.8005 29.425 12.661 27.6678 12.6274C26.3776 12.6033 24.9285 12.536 23.7201 13.0746C23.6719 13.0601 23.6238 13.0457 23.5756 13.0313C23.5564 13.0265 23.5467 13.0313 23.5323 13.0313C23.4986 13.0217 23.4649 13.0217 23.436 13.0313C23.1809 12.9207 22.9257 12.8101 22.6657 12.7091C21.7992 12.3629 20.9133 12.0551 20.0179 11.7811C19.4883 11.6224 18.9491 11.4637 18.4051 11.3242C19.8349 11.0357 21.2792 10.8097 22.7331 10.6799C26.3487 10.3577 30.022 10.5405 33.5605 11.3675C33.5894 11.382 33.6183 11.3916 33.652 11.3916C33.9601 11.4637 34.273 11.5358 34.5763 11.6176C34.7978 11.6753 35.0144 11.7522 35.2311 11.8147C35.5825 12.2138 35.9677 12.5889 36.3335 12.9784C36.7331 13.4015 37.1231 13.8295 37.5082 14.2671C37.5227 14.2863 37.5419 14.3055 37.5564 14.3248C37.5034 14.57 37.5179 14.8489 37.4986 15.0942C37.4793 15.3971 37.4505 15.7048 37.4168 16.0078C36.6272 16.9022 35.9147 18.0081 35.6932 19.1814C35.5825 19.7777 35.6403 20.3643 35.7125 20.9558C35.7462 21.2443 35.7799 21.5328 35.7703 21.8213C35.7655 21.9848 35.7414 22.1435 35.6981 22.3022C35.6595 22.4416 35.5777 22.5522 35.5873 22.7013C35.5873 22.7349 35.6066 22.7638 35.6307 22.7878C35.6162 22.8648 35.7029 22.9321 35.7799 22.8696C36.7668 22.1002 37.3975 20.7923 37.7393 19.6142C37.9174 18.9939 38.0137 18.3495 38.0234 17.71C38.0234 17.3974 38.0089 17.0801 37.9704 16.7675C37.9415 16.5367 37.9463 16.1232 37.7345 15.9789C37.7345 15.9693 37.7345 15.9549 37.7345 15.9453C37.7441 15.9308 37.7538 15.9164 37.7634 15.9068C37.7875 15.8683 37.773 15.8299 37.7489 15.801C37.7634 15.6135 37.7875 15.4211 37.7971 15.2336C37.8067 15.0557 37.8308 14.8537 37.8356 14.6566C38.2111 15.0942 38.5818 15.5413 38.9381 15.9982C38.9429 16.3492 38.9814 16.7002 38.9718 17.0512C38.9573 17.484 38.914 17.912 38.8803 18.3399C38.8129 19.1766 38.7792 20.0229 39.0296 20.8356C39.4677 22.2589 40.5557 23.3312 41.4608 24.466C41.7256 24.7978 41.9759 25.1392 42.1926 25.4999C42.3225 25.7114 42.4188 25.9374 42.5199 26.1634C42.5247 26.2115 42.544 26.25 42.5729 26.2788C42.6066 26.351 42.6355 26.4231 42.674 26.4952C42.6788 26.5481 42.7029 26.5866 42.7366 26.6154C42.7366 26.6202 42.7414 26.6299 42.7462 26.6347C42.8377 26.803 43.1554 26.7356 43.1265 26.5289C43.1169 26.4519 43.0976 26.3702 43.0784 26.2933C43.1217 26.0576 43.1313 25.8028 43.1313 25.5527C43.5117 24.2689 43.969 22.9561 43.8631 21.6145C43.8053 20.9029 43.5743 20.2345 43.1506 19.6575C42.6932 19.0324 42.0963 18.513 41.5378 17.9793C41.1719 17.6283 40.8012 17.282 40.4305 16.931C40.1176 16.6377 39.8095 16.2963 39.4484 16.0607C39.0199 15.5029 38.5722 14.9643 38.1052 14.4402C37.6575 13.9401 37.1953 13.4544 36.7235 12.9736C36.3913 12.6322 36.0591 12.286 35.7077 11.9542C39.2077 13.0649 42.4573 14.8537 45.4085 17.0368C45.3796 17.0657 45.3652 17.1185 45.3989 17.1522C46.0055 17.8494 46.4965 18.5803 46.8913 19.417C47.2716 20.2201 47.5846 21.0568 47.9938 21.8502C48.4174 22.6628 48.9422 23.4226 49.6788 23.9803C50.5213 24.6199 51.5227 24.9901 52.5096 25.346C53.0873 25.5576 53.6699 25.7595 54.2235 26.0288C54.4931 26.1586 54.7531 26.2981 55.0034 26.4568C55.2634 26.6251 55.4848 26.8511 55.7641 26.9857C55.8893 27.0482 56.0385 26.9136 55.9615 26.7837H55.9807ZM54.2668 16.5079C54.0791 16.4454 53.8913 16.3828 53.7036 16.3251C52.9573 16.1039 52.2015 15.926 51.436 15.7914C49.934 15.5269 48.403 15.4259 46.8769 15.4933C49.337 14.5652 52.1293 15.022 54.2668 16.5079ZM53.2799 16.5511C53.6987 16.6665 54.1128 16.7964 54.522 16.9358C54.7049 16.9983 54.8879 17.0705 55.0708 17.1378C55.119 17.1811 55.1671 17.2291 55.2152 17.2772C53.6699 17.5706 52.0715 17.5802 50.5213 17.3061C49.7173 17.1618 48.9278 16.9454 48.1575 16.6617C47.5027 16.4213 46.8961 16.0991 46.2703 15.8058C48.6293 15.6952 50.9835 15.9164 53.2799 16.5511ZM38.1293 9.31908C38.9236 9.06423 39.7517 8.89112 40.5798 8.80938C42.3274 8.63627 44.1375 8.90074 45.7022 9.72781C46.1403 9.95862 46.5591 10.2279 46.9395 10.5453C46.9972 10.5933 47.0502 10.6462 47.108 10.6991C44.2723 9.18925 40.8686 8.79976 37.7297 9.46334C37.8645 9.41525 37.9993 9.36236 38.1341 9.31908H38.1293ZM38.9429 9.60279C40.9168 9.34793 42.9388 9.52585 44.8404 10.1125C45.8466 10.4202 46.7998 10.853 47.7242 11.3531C47.7771 11.4108 47.8349 11.4685 47.8879 11.5262C47.6279 11.6608 47.3776 11.8195 47.0983 11.9157C46.6987 12.06 46.2847 12.1369 45.8659 12.1706C44.9848 12.2427 44.1086 12.1032 43.2613 11.8628C41.3597 11.3242 39.5976 10.3048 37.6141 10.0548C37.4119 10.0307 37.2001 10.0115 36.9883 9.99709C37.6286 9.81917 38.2833 9.67972 38.9429 9.59798V9.60279ZM30.1423 7.96307C28.9484 8.46316 27.6822 8.57376 26.4353 8.84304C26.4883 8.79495 26.5412 8.74687 26.599 8.69878C27.2249 8.17946 27.8941 7.70822 28.5873 7.28026C29.271 6.86192 29.9835 6.48685 30.7152 6.16468C31.3796 5.87135 32.0921 5.66939 32.7517 5.36646C32.8095 5.38088 32.8624 5.39531 32.9202 5.41454C32.4051 6.60225 31.3218 7.46779 30.1472 7.96307H30.1423ZM28.9051 5.7271C29.9113 5.23663 31.0715 5.08756 32.1788 5.25105C31.6444 5.40012 31.1148 5.62612 30.6238 5.83769C29.8631 6.16948 29.1265 6.54936 28.4188 6.98694C27.7256 7.4149 27.0612 7.89094 26.4305 8.41027C26.3679 8.46316 26.3053 8.52086 26.2428 8.57857C26.7579 7.35239 27.7063 6.30893 28.9051 5.72229V5.7271ZM23.1327 6.05408C22.5069 6.2897 21.8425 6.40029 21.1829 6.45319C22.7524 4.58266 24.6444 2.97661 26.7579 1.72158C27.273 1.41383 27.7978 1.13493 28.3418 0.875272C28.7269 0.687739 29.1313 0.533865 29.5213 0.355949C27.4656 2.33707 25.9202 5.00582 23.1375 6.04927L23.1327 6.05408ZM27.5282 0.572334C28.0192 0.456928 28.5103 0.394417 29.011 0.365566C28.828 0.442503 28.6451 0.524248 28.4622 0.605993C27.9663 0.831995 27.48 1.07723 27.0034 1.33689C26.0406 1.86102 25.121 2.4669 24.2544 3.1401C23.1327 4.00564 22.0832 4.97696 21.1396 6.03484C22.1747 3.29878 24.6974 1.23591 27.5282 0.572334ZM24.293 16.7146C24.4759 18.2389 24.4422 19.7921 24.1726 21.3068C24.1004 21.6963 24.0185 22.081 23.9174 22.4608C23.9174 22.3743 23.9126 22.2925 23.9126 22.2108C23.9126 21.8069 23.9126 21.403 23.9126 20.999C23.9078 20.1768 23.8982 19.3497 23.8789 18.5275C23.8597 17.7196 23.826 16.9118 23.7826 16.1039C23.7586 15.6856 23.7345 15.2673 23.7008 14.8441C23.6864 14.6614 23.6767 14.469 23.6623 14.2815C24.033 15.0172 24.2015 15.8779 24.3026 16.7098L24.293 16.7146ZM23.3445 14.3296C23.359 14.5364 23.3831 14.7479 23.3927 14.9499C23.4168 15.3346 23.4408 15.7241 23.4601 16.1088C23.5034 16.9166 23.5323 17.7244 23.5467 18.5323C23.5612 19.3401 23.5612 20.1479 23.5419 20.9558C23.5323 21.3453 23.513 21.7299 23.4938 22.1194C23.4938 22.1291 23.4938 22.1339 23.4938 22.1435C23.4264 21.9848 23.359 21.8309 23.2868 21.6722C22.9835 21.0231 22.632 20.398 22.3817 19.7296C22.1265 19.0468 21.9869 18.3063 22.1121 17.5802C22.2373 16.8493 22.5694 16.1761 22.8727 15.5077C23.0461 15.1278 23.2242 14.7335 23.3445 14.3248V14.3296ZM30.8067 17.8543C31.2063 18.0466 31.5963 18.263 31.967 18.5082C32.6843 18.9795 33.3487 19.5757 33.8397 20.2826C34.273 20.9077 34.5811 21.6145 34.7256 22.3599C34.7978 22.7349 34.8267 23.1244 34.8026 23.5043C34.793 23.6822 34.7689 23.8601 34.7352 24.0332C34.5956 23.5957 34.3982 23.1677 34.2104 22.7686C33.9168 22.1387 33.5798 21.528 33.2091 20.9413C32.4773 19.7921 31.6059 18.739 30.6382 17.7773C30.696 17.8014 30.7489 17.8254 30.8067 17.8543ZM32.5591 20.6576C33.002 21.2779 33.4016 21.9319 33.7627 22.6051C33.9408 22.9417 34.1093 23.2831 34.2634 23.6341C34.3597 23.8457 34.4463 24.0621 34.5378 24.2737C33.2476 23.4033 31.9044 22.5282 30.8741 21.3549C30.359 20.773 29.9883 20.1047 29.8535 19.3353C29.7476 18.7438 29.8053 18.1572 29.8198 17.5706C30.8356 18.5034 31.7599 19.5324 32.5639 20.6576H32.5591ZM28.8088 14.7431C27.403 14.7239 26.0694 14.243 24.8033 13.6468C25.8624 13.9161 26.9601 14.0459 28.0529 14.0555C28.8088 14.0603 29.5646 14.0074 30.3108 13.892C31.0234 13.7814 31.7696 13.6372 32.4484 13.3823C31.5144 14.3392 30.1279 14.7624 28.8088 14.7431ZM27.8796 12.988C29.165 13.0265 30.4456 13.1178 31.7263 13.2236C31.2593 13.3583 30.7923 13.4881 30.306 13.5746C29.5598 13.7045 28.804 13.7718 28.0481 13.7766C26.7242 13.7766 25.4195 13.5698 24.1485 13.2044C25.3425 12.863 26.6664 12.9495 27.8796 12.988ZM37.7008 17.7052C37.7104 18.3255 37.6382 18.941 37.489 19.5373C37.3397 20.1383 37.099 20.7153 36.7861 21.2491C36.5839 21.6001 36.3384 21.9127 36.088 22.2204C36.2373 21.9848 36.3432 21.7107 36.4491 21.4607C36.5743 21.1577 36.685 20.8452 36.7861 20.5374C37.0172 19.8354 37.2146 19.1189 37.3734 18.3976C37.4842 17.8975 37.566 17.3974 37.6382 16.8925C37.6767 17.1618 37.696 17.4311 37.7008 17.7052ZM37.3734 16.4982C37.2964 17.0945 37.2001 17.6908 37.0749 18.2774C36.9305 18.9554 36.7524 19.6238 36.5406 20.2874C36.4346 20.6192 36.3191 20.9413 36.2036 21.2683C36.1747 21.3501 36.1458 21.4318 36.1121 21.5088C36.1121 21.4559 36.1121 21.3982 36.1025 21.3453C36.0447 20.725 35.881 20.1143 35.9532 19.4892C36.0784 18.3399 36.7331 17.4167 37.3734 16.4982ZM41.4463 18.3784C42.1155 19.0372 42.8906 19.6959 43.2421 20.5903C43.7187 21.8069 43.4202 23.0283 43.0543 24.2304C43.0206 23.9467 42.9821 23.663 42.934 23.3841C42.7414 22.3118 42.4092 21.2731 41.9807 20.273C41.533 19.2247 40.9745 18.2341 40.339 17.2917C40.7049 17.6571 41.0756 18.0226 41.4463 18.3832V18.3784ZM39.7661 17.0945C40.9938 18.8641 41.9615 20.8259 42.4236 22.9369C42.5536 23.5235 42.6355 24.1198 42.674 24.7209C42.6884 24.9517 42.6884 25.1777 42.6884 25.4085C42.5151 25.1248 42.3177 24.8603 42.1348 24.6199C41.6774 24.0188 41.1575 23.461 40.676 22.8792C40.2042 22.307 39.7469 21.6963 39.4725 20.999C39.1595 20.2104 39.1547 19.369 39.2125 18.5371C39.2414 18.0562 39.2895 17.5706 39.2943 17.0849C39.2943 16.8685 39.2943 16.6377 39.2799 16.4165C39.4484 16.6377 39.6073 16.8637 39.7661 17.0945ZM54.7771 25.8557C54.3102 25.6008 53.8143 25.3989 53.3184 25.2065C52.293 24.8122 51.2242 24.4852 50.295 23.889C48.6822 22.8551 48.0516 21.0279 47.2428 19.393C46.925 18.7535 46.5639 18.0755 46.0729 17.5369C49.207 19.9556 52.0089 22.7734 54.6905 25.673C54.7771 25.7643 54.8638 25.8557 54.9505 25.9519C54.8927 25.9182 54.8301 25.8845 54.7771 25.8557ZM55.4704 26.274C54.9553 25.6056 54.3968 24.9709 53.8384 24.3362C53.1307 23.5332 52.4133 22.7446 51.6623 21.98C50.1843 20.4701 48.6245 19.0324 46.9828 17.7052C46.8961 17.6379 46.8095 17.5706 46.7228 17.5032C46.7228 17.5032 46.7276 17.5032 46.7324 17.5032C47.2716 17.71 47.8108 17.9168 48.35 18.1235C49.3996 18.5275 50.4491 18.9314 51.4312 19.4795C53.1307 20.4268 54.4498 21.8838 55.0997 23.7255C55.3934 24.5622 55.5137 25.4229 55.5041 26.3029C55.4897 26.2933 55.48 26.2836 55.4656 26.274H55.4704Z"/>
</mask>
<path d="M55.9807 26.7837C55.9278 26.6924 55.8556 26.6058 55.7785 26.5289C55.9037 24.7786 55.3693 22.9513 54.3631 21.5184C53.097 19.7152 51.1231 18.7583 49.1252 17.9745C48.4897 17.7244 47.8494 17.484 47.2139 17.234C46.8913 17.1089 46.5736 16.9887 46.2558 16.8589C46.0199 16.7627 45.7888 16.6377 45.5433 16.5848C45.24 16.3636 44.9415 16.1424 44.6334 15.926C45.0185 15.8828 45.4037 15.8491 45.7888 15.8251C46.4051 16.3348 47.1754 16.6714 47.9119 16.9647C48.7352 17.2917 49.6018 17.5273 50.4732 17.6763C52.1919 17.9697 53.9491 17.936 55.6533 17.5657C55.7593 17.5417 55.8026 17.4311 55.7785 17.3397C55.8844 17.3349 55.9326 17.1955 55.8363 17.133C55.6774 17.0272 55.5041 16.9454 55.326 16.8733C54.0935 15.7673 52.5481 15.022 50.9064 14.7768C49.2166 14.5267 47.5124 14.796 45.9477 15.4596C45.8899 15.4836 45.8562 15.5269 45.8466 15.5702C45.3652 15.6183 44.8789 15.6808 44.4023 15.7673C41.8556 14.017 39.1018 12.5697 36.1602 11.6031C35.5488 11.4012 34.9278 11.2281 34.3019 11.0694C34.5282 10.9444 34.7544 10.8194 34.9952 10.7136C35.0529 10.6895 35.1107 10.6655 35.1685 10.6414C35.5344 10.5597 35.9051 10.4683 36.2806 10.4395C36.7331 10.4058 37.1857 10.425 37.6334 10.4828C38.5674 10.6126 39.4677 10.9155 40.3487 11.2473C42.1348 11.9253 43.9498 12.7572 45.9092 12.5552C46.3473 12.512 46.7854 12.4158 47.1946 12.2523C47.5749 12.1032 48.0419 11.8965 48.2875 11.5551C48.3308 11.4925 48.2826 11.406 48.2104 11.3868C48.2056 11.3627 48.1912 11.3387 48.1671 11.3242C48.119 11.2906 48.066 11.2617 48.0179 11.2329C47.8205 10.9492 47.5653 10.6943 47.315 10.4683C46.9828 10.1654 46.6217 9.89611 46.2414 9.66049C45.4663 9.17964 44.5901 8.84785 43.6994 8.6507C41.9615 8.26601 40.1513 8.40546 38.4422 8.8767C37.9752 9.00653 37.5179 9.15078 37.0653 9.31908C36.6898 9.45853 36.295 9.59798 35.934 9.7807C35.5536 9.87207 35.1926 10.0404 34.8555 10.2327C34.6293 10.3577 34.4126 10.502 34.2104 10.6559C34.1864 10.6751 34.1623 10.6943 34.1382 10.7136C33.9986 10.7809 33.8638 10.853 33.7338 10.9299C30.9078 10.2664 27.9855 10.0067 25.0825 10.0836C25.304 9.88649 25.5062 9.65568 25.7228 9.45372C25.8769 9.30947 26.0357 9.17483 26.1946 9.04019C27.6245 9.09308 29.1554 8.80938 30.4601 8.22273C31.7407 7.64571 32.8528 6.65996 33.3535 5.32799C33.392 5.22701 33.3053 5.12603 33.2139 5.09718C31.7359 4.61151 30.1183 4.73173 28.7269 5.42897C27.2923 6.14544 26.2091 7.44375 25.7324 8.97287C25.7276 8.9921 25.7276 9.00653 25.7276 9.02095C25.6506 9.09308 25.5688 9.15559 25.4917 9.22772C25.2125 9.49219 24.8996 9.76628 24.7022 10.0981C24.5529 10.1029 24.4037 10.1077 24.2593 10.1125C22.2661 10.2135 20.2826 10.4683 18.3232 10.8578C19.0598 9.31427 19.989 7.87652 21.0722 6.56859C22.3384 6.78017 23.6527 6.21757 24.6974 5.53476C26.0117 4.67883 27.0516 3.49593 28.0963 2.34188C28.7366 1.63502 29.3865 0.932975 30.1038 0.303055C30.282 0.144373 30.0172 -0.120097 29.839 0.0433932C29.8294 0.0530103 29.8198 0.0626274 29.8053 0.0722445C29.7861 0.077053 29.7668 0.0866701 29.7476 0.0914786C26.7146 -0.0864377 23.7008 1.46672 21.9195 3.88061C21.3659 4.63556 20.9422 5.47224 20.6004 6.34259C20.5811 6.39068 20.5859 6.43395 20.6004 6.46761C20.5474 6.55898 20.4945 6.65515 20.4319 6.7417C20.3693 6.83787 20.2923 6.92443 20.2345 7.02541C20.2104 7.06868 20.1767 7.12639 20.1575 7.1889C19.9793 7.41971 19.806 7.65533 19.6375 7.89094C18.9539 8.85746 18.3521 9.88649 17.837 10.954C17.6637 10.9925 17.4903 11.0309 17.317 11.0694C17.2881 11.0646 17.2641 11.0598 17.2352 11.055C17.1437 11.0405 17.0715 11.079 17.0282 11.1367C15.4683 11.4925 13.9229 11.9205 12.4064 12.4254C8.59351 13.6949 4.86724 15.3634 1.36724 17.3349C0.924323 17.585 0.510293 17.8879 0.0770055 18.1572C-0.125195 18.2822 0.052934 18.5803 0.264763 18.4746C0.722122 18.2437 1.19392 18.0466 1.64165 17.8062C2.07976 17.5754 2.51304 17.3397 2.95115 17.1137C3.84179 16.6473 4.73244 16.1905 5.63753 15.7577C7.43808 14.8922 9.27233 14.0988 11.1499 13.4063C13.2008 12.6466 15.2998 12.0167 17.4326 11.5358C18.121 11.7137 18.8095 11.8724 19.4931 12.0696C20.273 12.2956 21.0481 12.5456 21.8088 12.8293C22.1747 12.964 22.5309 13.1082 22.892 13.2621C22.9931 13.3535 23.0846 13.4544 23.1712 13.5602C23.022 14.1757 22.815 14.7576 22.5502 15.3394C22.2517 15.9982 21.9195 16.6569 21.7751 17.3734C21.491 18.7631 22.0832 20.1143 22.6368 21.3597C22.8005 21.7299 22.969 22.105 23.1086 22.4897C23.2579 22.8888 23.3108 23.3168 23.4505 23.7111C23.4697 23.7688 23.5082 23.8072 23.5516 23.8361C23.5516 23.8409 23.5516 23.8505 23.5516 23.8553C23.5323 23.9996 23.7104 24.0861 23.7923 23.9515C24.2159 23.2783 24.3652 22.3983 24.5144 21.629C24.6733 20.8115 24.7648 19.9844 24.7888 19.1526C24.8129 18.3207 24.7696 17.4936 24.654 16.6714C24.5433 15.8828 24.3892 15.0845 24.0522 14.3536C23.9223 14.0699 23.7538 13.7958 23.5564 13.5554C24.4759 13.9641 25.3714 14.4161 26.2379 14.9307C27.4223 15.6327 28.5392 16.4454 29.5646 17.359C29.4346 18.0226 29.4298 18.739 29.5261 19.3882C29.6417 20.1624 29.9931 20.85 30.4745 21.4607C31.0089 22.1291 31.6637 22.7205 32.3184 23.2687C33.0454 23.8746 33.806 24.4708 34.6196 24.9565C34.8507 25.0959 35.0433 24.8363 34.9615 24.6343C35.2166 24.4804 35.2214 24.0765 35.2551 23.8072C35.2888 23.4947 35.2937 23.1773 35.2696 22.8648C35.2166 22.2252 35.0433 21.6049 34.7833 21.0183C34.2056 19.72 33.1609 18.7006 31.9525 17.9793C31.5963 17.7677 31.2207 17.585 30.8356 17.4263C30.5419 17.3061 30.2338 17.1811 29.9209 17.1185C29.8776 17.0801 29.839 17.0416 29.7957 17.0031C29.7957 16.9983 29.7957 16.9887 29.7957 16.9839C29.7957 16.931 29.7428 16.907 29.7042 16.9166C28.8184 16.1424 27.8604 15.45 26.8638 14.8297C28.4092 15.248 30.0075 15.2961 31.5192 14.5364C32.1403 14.2238 32.6747 13.7814 33.0887 13.2236C33.185 13.0938 33.0454 12.9495 32.9202 12.9399C31.1726 12.8005 29.425 12.661 27.6678 12.6274C26.3776 12.6033 24.9285 12.536 23.7201 13.0746C23.6719 13.0601 23.6238 13.0457 23.5756 13.0313C23.5564 13.0265 23.5467 13.0313 23.5323 13.0313C23.4986 13.0217 23.4649 13.0217 23.436 13.0313C23.1809 12.9207 22.9257 12.8101 22.6657 12.7091C21.7992 12.3629 20.9133 12.0551 20.0179 11.7811C19.4883 11.6224 18.9491 11.4637 18.4051 11.3242C19.8349 11.0357 21.2792 10.8097 22.7331 10.6799C26.3487 10.3577 30.022 10.5405 33.5605 11.3675C33.5894 11.382 33.6183 11.3916 33.652 11.3916C33.9601 11.4637 34.273 11.5358 34.5763 11.6176C34.7978 11.6753 35.0144 11.7522 35.2311 11.8147C35.5825 12.2138 35.9677 12.5889 36.3335 12.9784C36.7331 13.4015 37.1231 13.8295 37.5082 14.2671C37.5227 14.2863 37.5419 14.3055 37.5564 14.3248C37.5034 14.57 37.5179 14.8489 37.4986 15.0942C37.4793 15.3971 37.4505 15.7048 37.4168 16.0078C36.6272 16.9022 35.9147 18.0081 35.6932 19.1814C35.5825 19.7777 35.6403 20.3643 35.7125 20.9558C35.7462 21.2443 35.7799 21.5328 35.7703 21.8213C35.7655 21.9848 35.7414 22.1435 35.6981 22.3022C35.6595 22.4416 35.5777 22.5522 35.5873 22.7013C35.5873 22.7349 35.6066 22.7638 35.6307 22.7878C35.6162 22.8648 35.7029 22.9321 35.7799 22.8696C36.7668 22.1002 37.3975 20.7923 37.7393 19.6142C37.9174 18.9939 38.0137 18.3495 38.0234 17.71C38.0234 17.3974 38.0089 17.0801 37.9704 16.7675C37.9415 16.5367 37.9463 16.1232 37.7345 15.9789C37.7345 15.9693 37.7345 15.9549 37.7345 15.9453C37.7441 15.9308 37.7538 15.9164 37.7634 15.9068C37.7875 15.8683 37.773 15.8299 37.7489 15.801C37.7634 15.6135 37.7875 15.4211 37.7971 15.2336C37.8067 15.0557 37.8308 14.8537 37.8356 14.6566C38.2111 15.0942 38.5818 15.5413 38.9381 15.9982C38.9429 16.3492 38.9814 16.7002 38.9718 17.0512C38.9573 17.484 38.914 17.912 38.8803 18.3399C38.8129 19.1766 38.7792 20.0229 39.0296 20.8356C39.4677 22.2589 40.5557 23.3312 41.4608 24.466C41.7256 24.7978 41.9759 25.1392 42.1926 25.4999C42.3225 25.7114 42.4188 25.9374 42.5199 26.1634C42.5247 26.2115 42.544 26.25 42.5729 26.2788C42.6066 26.351 42.6355 26.4231 42.674 26.4952C42.6788 26.5481 42.7029 26.5866 42.7366 26.6154C42.7366 26.6202 42.7414 26.6299 42.7462 26.6347C42.8377 26.803 43.1554 26.7356 43.1265 26.5289C43.1169 26.4519 43.0976 26.3702 43.0784 26.2933C43.1217 26.0576 43.1313 25.8028 43.1313 25.5527C43.5117 24.2689 43.969 22.9561 43.8631 21.6145C43.8053 20.9029 43.5743 20.2345 43.1506 19.6575C42.6932 19.0324 42.0963 18.513 41.5378 17.9793C41.1719 17.6283 40.8012 17.282 40.4305 16.931C40.1176 16.6377 39.8095 16.2963 39.4484 16.0607C39.0199 15.5029 38.5722 14.9643 38.1052 14.4402C37.6575 13.9401 37.1953 13.4544 36.7235 12.9736C36.3913 12.6322 36.0591 12.286 35.7077 11.9542C39.2077 13.0649 42.4573 14.8537 45.4085 17.0368C45.3796 17.0657 45.3652 17.1185 45.3989 17.1522C46.0055 17.8494 46.4965 18.5803 46.8913 19.417C47.2716 20.2201 47.5846 21.0568 47.9938 21.8502C48.4174 22.6628 48.9422 23.4226 49.6788 23.9803C50.5213 24.6199 51.5227 24.9901 52.5096 25.346C53.0873 25.5576 53.6699 25.7595 54.2235 26.0288C54.4931 26.1586 54.7531 26.2981 55.0034 26.4568C55.2634 26.6251 55.4848 26.8511 55.7641 26.9857C55.8893 27.0482 56.0385 26.9136 55.9615 26.7837H55.9807ZM54.2668 16.5079C54.0791 16.4454 53.8913 16.3828 53.7036 16.3251C52.9573 16.1039 52.2015 15.926 51.436 15.7914C49.934 15.5269 48.403 15.4259 46.8769 15.4933C49.337 14.5652 52.1293 15.022 54.2668 16.5079ZM53.2799 16.5511C53.6987 16.6665 54.1128 16.7964 54.522 16.9358C54.7049 16.9983 54.8879 17.0705 55.0708 17.1378C55.119 17.1811 55.1671 17.2291 55.2152 17.2772C53.6699 17.5706 52.0715 17.5802 50.5213 17.3061C49.7173 17.1618 48.9278 16.9454 48.1575 16.6617C47.5027 16.4213 46.8961 16.0991 46.2703 15.8058C48.6293 15.6952 50.9835 15.9164 53.2799 16.5511ZM38.1293 9.31908C38.9236 9.06423 39.7517 8.89112 40.5798 8.80938C42.3274 8.63627 44.1375 8.90074 45.7022 9.72781C46.1403 9.95862 46.5591 10.2279 46.9395 10.5453C46.9972 10.5933 47.0502 10.6462 47.108 10.6991C44.2723 9.18925 40.8686 8.79976 37.7297 9.46334C37.8645 9.41525 37.9993 9.36236 38.1341 9.31908H38.1293ZM38.9429 9.60279C40.9168 9.34793 42.9388 9.52585 44.8404 10.1125C45.8466 10.4202 46.7998 10.853 47.7242 11.3531C47.7771 11.4108 47.8349 11.4685 47.8879 11.5262C47.6279 11.6608 47.3776 11.8195 47.0983 11.9157C46.6987 12.06 46.2847 12.1369 45.8659 12.1706C44.9848 12.2427 44.1086 12.1032 43.2613 11.8628C41.3597 11.3242 39.5976 10.3048 37.6141 10.0548C37.4119 10.0307 37.2001 10.0115 36.9883 9.99709C37.6286 9.81917 38.2833 9.67972 38.9429 9.59798V9.60279ZM30.1423 7.96307C28.9484 8.46316 27.6822 8.57376 26.4353 8.84304C26.4883 8.79495 26.5412 8.74687 26.599 8.69878C27.2249 8.17946 27.8941 7.70822 28.5873 7.28026C29.271 6.86192 29.9835 6.48685 30.7152 6.16468C31.3796 5.87135 32.0921 5.66939 32.7517 5.36646C32.8095 5.38088 32.8624 5.39531 32.9202 5.41454C32.4051 6.60225 31.3218 7.46779 30.1472 7.96307H30.1423ZM28.9051 5.7271C29.9113 5.23663 31.0715 5.08756 32.1788 5.25105C31.6444 5.40012 31.1148 5.62612 30.6238 5.83769C29.8631 6.16948 29.1265 6.54936 28.4188 6.98694C27.7256 7.4149 27.0612 7.89094 26.4305 8.41027C26.3679 8.46316 26.3053 8.52086 26.2428 8.57857C26.7579 7.35239 27.7063 6.30893 28.9051 5.72229V5.7271ZM23.1327 6.05408C22.5069 6.2897 21.8425 6.40029 21.1829 6.45319C22.7524 4.58266 24.6444 2.97661 26.7579 1.72158C27.273 1.41383 27.7978 1.13493 28.3418 0.875272C28.7269 0.687739 29.1313 0.533865 29.5213 0.355949C27.4656 2.33707 25.9202 5.00582 23.1375 6.04927L23.1327 6.05408ZM27.5282 0.572334C28.0192 0.456928 28.5103 0.394417 29.011 0.365566C28.828 0.442503 28.6451 0.524248 28.4622 0.605993C27.9663 0.831995 27.48 1.07723 27.0034 1.33689C26.0406 1.86102 25.121 2.4669 24.2544 3.1401C23.1327 4.00564 22.0832 4.97696 21.1396 6.03484C22.1747 3.29878 24.6974 1.23591 27.5282 0.572334ZM24.293 16.7146C24.4759 18.2389 24.4422 19.7921 24.1726 21.3068C24.1004 21.6963 24.0185 22.081 23.9174 22.4608C23.9174 22.3743 23.9126 22.2925 23.9126 22.2108C23.9126 21.8069 23.9126 21.403 23.9126 20.999C23.9078 20.1768 23.8982 19.3497 23.8789 18.5275C23.8597 17.7196 23.826 16.9118 23.7826 16.1039C23.7586 15.6856 23.7345 15.2673 23.7008 14.8441C23.6864 14.6614 23.6767 14.469 23.6623 14.2815C24.033 15.0172 24.2015 15.8779 24.3026 16.7098L24.293 16.7146ZM23.3445 14.3296C23.359 14.5364 23.3831 14.7479 23.3927 14.9499C23.4168 15.3346 23.4408 15.7241 23.4601 16.1088C23.5034 16.9166 23.5323 17.7244 23.5467 18.5323C23.5612 19.3401 23.5612 20.1479 23.5419 20.9558C23.5323 21.3453 23.513 21.7299 23.4938 22.1194C23.4938 22.1291 23.4938 22.1339 23.4938 22.1435C23.4264 21.9848 23.359 21.8309 23.2868 21.6722C22.9835 21.0231 22.632 20.398 22.3817 19.7296C22.1265 19.0468 21.9869 18.3063 22.1121 17.5802C22.2373 16.8493 22.5694 16.1761 22.8727 15.5077C23.0461 15.1278 23.2242 14.7335 23.3445 14.3248V14.3296ZM30.8067 17.8543C31.2063 18.0466 31.5963 18.263 31.967 18.5082C32.6843 18.9795 33.3487 19.5757 33.8397 20.2826C34.273 20.9077 34.5811 21.6145 34.7256 22.3599C34.7978 22.7349 34.8267 23.1244 34.8026 23.5043C34.793 23.6822 34.7689 23.8601 34.7352 24.0332C34.5956 23.5957 34.3982 23.1677 34.2104 22.7686C33.9168 22.1387 33.5798 21.528 33.2091 20.9413C32.4773 19.7921 31.6059 18.739 30.6382 17.7773C30.696 17.8014 30.7489 17.8254 30.8067 17.8543ZM32.5591 20.6576C33.002 21.2779 33.4016 21.9319 33.7627 22.6051C33.9408 22.9417 34.1093 23.2831 34.2634 23.6341C34.3597 23.8457 34.4463 24.0621 34.5378 24.2737C33.2476 23.4033 31.9044 22.5282 30.8741 21.3549C30.359 20.773 29.9883 20.1047 29.8535 19.3353C29.7476 18.7438 29.8053 18.1572 29.8198 17.5706C30.8356 18.5034 31.7599 19.5324 32.5639 20.6576H32.5591ZM28.8088 14.7431C27.403 14.7239 26.0694 14.243 24.8033 13.6468C25.8624 13.9161 26.9601 14.0459 28.0529 14.0555C28.8088 14.0603 29.5646 14.0074 30.3108 13.892C31.0234 13.7814 31.7696 13.6372 32.4484 13.3823C31.5144 14.3392 30.1279 14.7624 28.8088 14.7431ZM27.8796 12.988C29.165 13.0265 30.4456 13.1178 31.7263 13.2236C31.2593 13.3583 30.7923 13.4881 30.306 13.5746C29.5598 13.7045 28.804 13.7718 28.0481 13.7766C26.7242 13.7766 25.4195 13.5698 24.1485 13.2044C25.3425 12.863 26.6664 12.9495 27.8796 12.988ZM37.7008 17.7052C37.7104 18.3255 37.6382 18.941 37.489 19.5373C37.3397 20.1383 37.099 20.7153 36.7861 21.2491C36.5839 21.6001 36.3384 21.9127 36.088 22.2204C36.2373 21.9848 36.3432 21.7107 36.4491 21.4607C36.5743 21.1577 36.685 20.8452 36.7861 20.5374C37.0172 19.8354 37.2146 19.1189 37.3734 18.3976C37.4842 17.8975 37.566 17.3974 37.6382 16.8925C37.6767 17.1618 37.696 17.4311 37.7008 17.7052ZM37.3734 16.4982C37.2964 17.0945 37.2001 17.6908 37.0749 18.2774C36.9305 18.9554 36.7524 19.6238 36.5406 20.2874C36.4346 20.6192 36.3191 20.9413 36.2036 21.2683C36.1747 21.3501 36.1458 21.4318 36.1121 21.5088C36.1121 21.4559 36.1121 21.3982 36.1025 21.3453C36.0447 20.725 35.881 20.1143 35.9532 19.4892C36.0784 18.3399 36.7331 17.4167 37.3734 16.4982ZM41.4463 18.3784C42.1155 19.0372 42.8906 19.6959 43.2421 20.5903C43.7187 21.8069 43.4202 23.0283 43.0543 24.2304C43.0206 23.9467 42.9821 23.663 42.934 23.3841C42.7414 22.3118 42.4092 21.2731 41.9807 20.273C41.533 19.2247 40.9745 18.2341 40.339 17.2917C40.7049 17.6571 41.0756 18.0226 41.4463 18.3832V18.3784ZM39.7661 17.0945C40.9938 18.8641 41.9615 20.8259 42.4236 22.9369C42.5536 23.5235 42.6355 24.1198 42.674 24.7209C42.6884 24.9517 42.6884 25.1777 42.6884 25.4085C42.5151 25.1248 42.3177 24.8603 42.1348 24.6199C41.6774 24.0188 41.1575 23.461 40.676 22.8792C40.2042 22.307 39.7469 21.6963 39.4725 20.999C39.1595 20.2104 39.1547 19.369 39.2125 18.5371C39.2414 18.0562 39.2895 17.5706 39.2943 17.0849C39.2943 16.8685 39.2943 16.6377 39.2799 16.4165C39.4484 16.6377 39.6073 16.8637 39.7661 17.0945ZM54.7771 25.8557C54.3102 25.6008 53.8143 25.3989 53.3184 25.2065C52.293 24.8122 51.2242 24.4852 50.295 23.889C48.6822 22.8551 48.0516 21.0279 47.2428 19.393C46.925 18.7535 46.5639 18.0755 46.0729 17.5369C49.207 19.9556 52.0089 22.7734 54.6905 25.673C54.7771 25.7643 54.8638 25.8557 54.9505 25.9519C54.8927 25.9182 54.8301 25.8845 54.7771 25.8557ZM55.4704 26.274C54.9553 25.6056 54.3968 24.9709 53.8384 24.3362C53.1307 23.5332 52.4133 22.7446 51.6623 21.98C50.1843 20.4701 48.6245 19.0324 46.9828 17.7052C46.8961 17.6379 46.8095 17.5706 46.7228 17.5032C46.7228 17.5032 46.7276 17.5032 46.7324 17.5032C47.2716 17.71 47.8108 17.9168 48.35 18.1235C49.3996 18.5275 50.4491 18.9314 51.4312 19.4795C53.1307 20.4268 54.4498 21.8838 55.0997 23.7255C55.3934 24.5622 55.5137 25.4229 55.5041 26.3029C55.4897 26.2933 55.48 26.2836 55.4656 26.274H55.4704Z" fill="#E7E0DC"/>
<path d="M55.9807 26.7837C55.9278 26.6924 55.8556 26.6058 55.7785 26.5289C55.9037 24.7786 55.3693 22.9513 54.3631 21.5184C53.097 19.7152 51.1231 18.7583 49.1252 17.9745C48.4897 17.7244 47.8494 17.484 47.2139 17.234C46.8913 17.1089 46.5736 16.9887 46.2558 16.8589C46.0199 16.7627 45.7888 16.6377 45.5433 16.5848C45.24 16.3636 44.9415 16.1424 44.6334 15.926C45.0185 15.8828 45.4037 15.8491 45.7888 15.8251C46.4051 16.3348 47.1754 16.6714 47.9119 16.9647C48.7352 17.2917 49.6018 17.5273 50.4732 17.6763C52.1919 17.9697 53.9491 17.936 55.6533 17.5657C55.7593 17.5417 55.8026 17.4311 55.7785 17.3397C55.8844 17.3349 55.9326 17.1955 55.8363 17.133C55.6774 17.0272 55.5041 16.9454 55.326 16.8733C54.0935 15.7673 52.5481 15.022 50.9064 14.7768C49.2166 14.5267 47.5124 14.796 45.9477 15.4596C45.8899 15.4836 45.8562 15.5269 45.8466 15.5702C45.3652 15.6183 44.8789 15.6808 44.4023 15.7673C41.8556 14.017 39.1018 12.5697 36.1602 11.6031C35.5488 11.4012 34.9278 11.2281 34.3019 11.0694C34.5282 10.9444 34.7544 10.8194 34.9952 10.7136C35.0529 10.6895 35.1107 10.6655 35.1685 10.6414C35.5344 10.5597 35.9051 10.4683 36.2806 10.4395C36.7331 10.4058 37.1857 10.425 37.6334 10.4828C38.5674 10.6126 39.4677 10.9155 40.3487 11.2473C42.1348 11.9253 43.9498 12.7572 45.9092 12.5552C46.3473 12.512 46.7854 12.4158 47.1946 12.2523C47.5749 12.1032 48.0419 11.8965 48.2875 11.5551C48.3308 11.4925 48.2826 11.406 48.2104 11.3868C48.2056 11.3627 48.1912 11.3387 48.1671 11.3242C48.119 11.2906 48.066 11.2617 48.0179 11.2329C47.8205 10.9492 47.5653 10.6943 47.315 10.4683C46.9828 10.1654 46.6217 9.89611 46.2414 9.66049C45.4663 9.17964 44.5901 8.84785 43.6994 8.6507C41.9615 8.26601 40.1513 8.40546 38.4422 8.8767C37.9752 9.00653 37.5179 9.15078 37.0653 9.31908C36.6898 9.45853 36.295 9.59798 35.934 9.7807C35.5536 9.87207 35.1926 10.0404 34.8555 10.2327C34.6293 10.3577 34.4126 10.502 34.2104 10.6559C34.1864 10.6751 34.1623 10.6943 34.1382 10.7136C33.9986 10.7809 33.8638 10.853 33.7338 10.9299C30.9078 10.2664 27.9855 10.0067 25.0825 10.0836C25.304 9.88649 25.5062 9.65568 25.7228 9.45372C25.8769 9.30947 26.0357 9.17483 26.1946 9.04019C27.6245 9.09308 29.1554 8.80938 30.4601 8.22273C31.7407 7.64571 32.8528 6.65996 33.3535 5.32799C33.392 5.22701 33.3053 5.12603 33.2139 5.09718C31.7359 4.61151 30.1183 4.73173 28.7269 5.42897C27.2923 6.14544 26.2091 7.44375 25.7324 8.97287C25.7276 8.9921 25.7276 9.00653 25.7276 9.02095C25.6506 9.09308 25.5688 9.15559 25.4917 9.22772C25.2125 9.49219 24.8996 9.76628 24.7022 10.0981C24.5529 10.1029 24.4037 10.1077 24.2593 10.1125C22.2661 10.2135 20.2826 10.4683 18.3232 10.8578C19.0598 9.31427 19.989 7.87652 21.0722 6.56859C22.3384 6.78017 23.6527 6.21757 24.6974 5.53476C26.0117 4.67883 27.0516 3.49593 28.0963 2.34188C28.7366 1.63502 29.3865 0.932975 30.1038 0.303055C30.282 0.144373 30.0172 -0.120097 29.839 0.0433932C29.8294 0.0530103 29.8198 0.0626274 29.8053 0.0722445C29.7861 0.077053 29.7668 0.0866701 29.7476 0.0914786C26.7146 -0.0864377 23.7008 1.46672 21.9195 3.88061C21.3659 4.63556 20.9422 5.47224 20.6004 6.34259C20.5811 6.39068 20.5859 6.43395 20.6004 6.46761C20.5474 6.55898 20.4945 6.65515 20.4319 6.7417C20.3693 6.83787 20.2923 6.92443 20.2345 7.02541C20.2104 7.06868 20.1767 7.12639 20.1575 7.1889C19.9793 7.41971 19.806 7.65533 19.6375 7.89094C18.9539 8.85746 18.3521 9.88649 17.837 10.954C17.6637 10.9925 17.4903 11.0309 17.317 11.0694C17.2881 11.0646 17.2641 11.0598 17.2352 11.055C17.1437 11.0405 17.0715 11.079 17.0282 11.1367C15.4683 11.4925 13.9229 11.9205 12.4064 12.4254C8.59351 13.6949 4.86724 15.3634 1.36724 17.3349C0.924323 17.585 0.510293 17.8879 0.0770055 18.1572C-0.125195 18.2822 0.052934 18.5803 0.264763 18.4746C0.722122 18.2437 1.19392 18.0466 1.64165 17.8062C2.07976 17.5754 2.51304 17.3397 2.95115 17.1137C3.84179 16.6473 4.73244 16.1905 5.63753 15.7577C7.43808 14.8922 9.27233 14.0988 11.1499 13.4063C13.2008 12.6466 15.2998 12.0167 17.4326 11.5358C18.121 11.7137 18.8095 11.8724 19.4931 12.0696C20.273 12.2956 21.0481 12.5456 21.8088 12.8293C22.1747 12.964 22.5309 13.1082 22.892 13.2621C22.9931 13.3535 23.0846 13.4544 23.1712 13.5602C23.022 14.1757 22.815 14.7576 22.5502 15.3394C22.2517 15.9982 21.9195 16.6569 21.7751 17.3734C21.491 18.7631 22.0832 20.1143 22.6368 21.3597C22.8005 21.7299 22.969 22.105 23.1086 22.4897C23.2579 22.8888 23.3108 23.3168 23.4505 23.7111C23.4697 23.7688 23.5082 23.8072 23.5516 23.8361C23.5516 23.8409 23.5516 23.8505 23.5516 23.8553C23.5323 23.9996 23.7104 24.0861 23.7923 23.9515C24.2159 23.2783 24.3652 22.3983 24.5144 21.629C24.6733 20.8115 24.7648 19.9844 24.7888 19.1526C24.8129 18.3207 24.7696 17.4936 24.654 16.6714C24.5433 15.8828 24.3892 15.0845 24.0522 14.3536C23.9223 14.0699 23.7538 13.7958 23.5564 13.5554C24.4759 13.9641 25.3714 14.4161 26.2379 14.9307C27.4223 15.6327 28.5392 16.4454 29.5646 17.359C29.4346 18.0226 29.4298 18.739 29.5261 19.3882C29.6417 20.1624 29.9931 20.85 30.4745 21.4607C31.0089 22.1291 31.6637 22.7205 32.3184 23.2687C33.0454 23.8746 33.806 24.4708 34.6196 24.9565C34.8507 25.0959 35.0433 24.8363 34.9615 24.6343C35.2166 24.4804 35.2214 24.0765 35.2551 23.8072C35.2888 23.4947 35.2937 23.1773 35.2696 22.8648C35.2166 22.2252 35.0433 21.6049 34.7833 21.0183C34.2056 19.72 33.1609 18.7006 31.9525 17.9793C31.5963 17.7677 31.2207 17.585 30.8356 17.4263C30.5419 17.3061 30.2338 17.1811 29.9209 17.1185C29.8776 17.0801 29.839 17.0416 29.7957 17.0031C29.7957 16.9983 29.7957 16.9887 29.7957 16.9839C29.7957 16.931 29.7428 16.907 29.7042 16.9166C28.8184 16.1424 27.8604 15.45 26.8638 14.8297C28.4092 15.248 30.0075 15.2961 31.5192 14.5364C32.1403 14.2238 32.6747 13.7814 33.0887 13.2236C33.185 13.0938 33.0454 12.9495 32.9202 12.9399C31.1726 12.8005 29.425 12.661 27.6678 12.6274C26.3776 12.6033 24.9285 12.536 23.7201 13.0746C23.6719 13.0601 23.6238 13.0457 23.5756 13.0313C23.5564 13.0265 23.5467 13.0313 23.5323 13.0313C23.4986 13.0217 23.4649 13.0217 23.436 13.0313C23.1809 12.9207 22.9257 12.8101 22.6657 12.7091C21.7992 12.3629 20.9133 12.0551 20.0179 11.7811C19.4883 11.6224 18.9491 11.4637 18.4051 11.3242C19.8349 11.0357 21.2792 10.8097 22.7331 10.6799C26.3487 10.3577 30.022 10.5405 33.5605 11.3675C33.5894 11.382 33.6183 11.3916 33.652 11.3916C33.9601 11.4637 34.273 11.5358 34.5763 11.6176C34.7978 11.6753 35.0144 11.7522 35.2311 11.8147C35.5825 12.2138 35.9677 12.5889 36.3335 12.9784C36.7331 13.4015 37.1231 13.8295 37.5082 14.2671C37.5227 14.2863 37.5419 14.3055 37.5564 14.3248C37.5034 14.57 37.5179 14.8489 37.4986 15.0942C37.4793 15.3971 37.4505 15.7048 37.4168 16.0078C36.6272 16.9022 35.9147 18.0081 35.6932 19.1814C35.5825 19.7777 35.6403 20.3643 35.7125 20.9558C35.7462 21.2443 35.7799 21.5328 35.7703 21.8213C35.7655 21.9848 35.7414 22.1435 35.6981 22.3022C35.6595 22.4416 35.5777 22.5522 35.5873 22.7013C35.5873 22.7349 35.6066 22.7638 35.6307 22.7878C35.6162 22.8648 35.7029 22.9321 35.7799 22.8696C36.7668 22.1002 37.3975 20.7923 37.7393 19.6142C37.9174 18.9939 38.0137 18.3495 38.0234 17.71C38.0234 17.3974 38.0089 17.0801 37.9704 16.7675C37.9415 16.5367 37.9463 16.1232 37.7345 15.9789C37.7345 15.9693 37.7345 15.9549 37.7345 15.9453C37.7441 15.9308 37.7538 15.9164 37.7634 15.9068C37.7875 15.8683 37.773 15.8299 37.7489 15.801C37.7634 15.6135 37.7875 15.4211 37.7971 15.2336C37.8067 15.0557 37.8308 14.8537 37.8356 14.6566C38.2111 15.0942 38.5818 15.5413 38.9381 15.9982C38.9429 16.3492 38.9814 16.7002 38.9718 17.0512C38.9573 17.484 38.914 17.912 38.8803 18.3399C38.8129 19.1766 38.7792 20.0229 39.0296 20.8356C39.4677 22.2589 40.5557 23.3312 41.4608 24.466C41.7256 24.7978 41.9759 25.1392 42.1926 25.4999C42.3225 25.7114 42.4188 25.9374 42.5199 26.1634C42.5247 26.2115 42.544 26.25 42.5729 26.2788C42.6066 26.351 42.6355 26.4231 42.674 26.4952C42.6788 26.5481 42.7029 26.5866 42.7366 26.6154C42.7366 26.6202 42.7414 26.6299 42.7462 26.6347C42.8377 26.803 43.1554 26.7356 43.1265 26.5289C43.1169 26.4519 43.0976 26.3702 43.0784 26.2933C43.1217 26.0576 43.1313 25.8028 43.1313 25.5527C43.5117 24.2689 43.969 22.9561 43.8631 21.6145C43.8053 20.9029 43.5743 20.2345 43.1506 19.6575C42.6932 19.0324 42.0963 18.513 41.5378 17.9793C41.1719 17.6283 40.8012 17.282 40.4305 16.931C40.1176 16.6377 39.8095 16.2963 39.4484 16.0607C39.0199 15.5029 38.5722 14.9643 38.1052 14.4402C37.6575 13.9401 37.1953 13.4544 36.7235 12.9736C36.3913 12.6322 36.0591 12.286 35.7077 11.9542C39.2077 13.0649 42.4573 14.8537 45.4085 17.0368C45.3796 17.0657 45.3652 17.1185 45.3989 17.1522C46.0055 17.8494 46.4965 18.5803 46.8913 19.417C47.2716 20.2201 47.5846 21.0568 47.9938 21.8502C48.4174 22.6628 48.9422 23.4226 49.6788 23.9803C50.5213 24.6199 51.5227 24.9901 52.5096 25.346C53.0873 25.5576 53.6699 25.7595 54.2235 26.0288C54.4931 26.1586 54.7531 26.2981 55.0034 26.4568C55.2634 26.6251 55.4848 26.8511 55.7641 26.9857C55.8893 27.0482 56.0385 26.9136 55.9615 26.7837H55.9807ZM54.2668 16.5079C54.0791 16.4454 53.8913 16.3828 53.7036 16.3251C52.9573 16.1039 52.2015 15.926 51.436 15.7914C49.934 15.5269 48.403 15.4259 46.8769 15.4933C49.337 14.5652 52.1293 15.022 54.2668 16.5079ZM53.2799 16.5511C53.6987 16.6665 54.1128 16.7964 54.522 16.9358C54.7049 16.9983 54.8879 17.0705 55.0708 17.1378C55.119 17.1811 55.1671 17.2291 55.2152 17.2772C53.6699 17.5706 52.0715 17.5802 50.5213 17.3061C49.7173 17.1618 48.9278 16.9454 48.1575 16.6617C47.5027 16.4213 46.8961 16.0991 46.2703 15.8058C48.6293 15.6952 50.9835 15.9164 53.2799 16.5511ZM38.1293 9.31908C38.9236 9.06423 39.7517 8.89112 40.5798 8.80938C42.3274 8.63627 44.1375 8.90074 45.7022 9.72781C46.1403 9.95862 46.5591 10.2279 46.9395 10.5453C46.9972 10.5933 47.0502 10.6462 47.108 10.6991C44.2723 9.18925 40.8686 8.79976 37.7297 9.46334C37.8645 9.41525 37.9993 9.36236 38.1341 9.31908H38.1293ZM38.9429 9.60279C40.9168 9.34793 42.9388 9.52585 44.8404 10.1125C45.8466 10.4202 46.7998 10.853 47.7242 11.3531C47.7771 11.4108 47.8349 11.4685 47.8879 11.5262C47.6279 11.6608 47.3776 11.8195 47.0983 11.9157C46.6987 12.06 46.2847 12.1369 45.8659 12.1706C44.9848 12.2427 44.1086 12.1032 43.2613 11.8628C41.3597 11.3242 39.5976 10.3048 37.6141 10.0548C37.4119 10.0307 37.2001 10.0115 36.9883 9.99709C37.6286 9.81917 38.2833 9.67972 38.9429 9.59798V9.60279ZM30.1423 7.96307C28.9484 8.46316 27.6822 8.57376 26.4353 8.84304C26.4883 8.79495 26.5412 8.74687 26.599 8.69878C27.2249 8.17946 27.8941 7.70822 28.5873 7.28026C29.271 6.86192 29.9835 6.48685 30.7152 6.16468C31.3796 5.87135 32.0921 5.66939 32.7517 5.36646C32.8095 5.38088 32.8624 5.39531 32.9202 5.41454C32.4051 6.60225 31.3218 7.46779 30.1472 7.96307H30.1423ZM28.9051 5.7271C29.9113 5.23663 31.0715 5.08756 32.1788 5.25105C31.6444 5.40012 31.1148 5.62612 30.6238 5.83769C29.8631 6.16948 29.1265 6.54936 28.4188 6.98694C27.7256 7.4149 27.0612 7.89094 26.4305 8.41027C26.3679 8.46316 26.3053 8.52086 26.2428 8.57857C26.7579 7.35239 27.7063 6.30893 28.9051 5.72229V5.7271ZM23.1327 6.05408C22.5069 6.2897 21.8425 6.40029 21.1829 6.45319C22.7524 4.58266 24.6444 2.97661 26.7579 1.72158C27.273 1.41383 27.7978 1.13493 28.3418 0.875272C28.7269 0.687739 29.1313 0.533865 29.5213 0.355949C27.4656 2.33707 25.9202 5.00582 23.1375 6.04927L23.1327 6.05408ZM27.5282 0.572334C28.0192 0.456928 28.5103 0.394417 29.011 0.365566C28.828 0.442503 28.6451 0.524248 28.4622 0.605993C27.9663 0.831995 27.48 1.07723 27.0034 1.33689C26.0406 1.86102 25.121 2.4669 24.2544 3.1401C23.1327 4.00564 22.0832 4.97696 21.1396 6.03484C22.1747 3.29878 24.6974 1.23591 27.5282 0.572334ZM24.293 16.7146C24.4759 18.2389 24.4422 19.7921 24.1726 21.3068C24.1004 21.6963 24.0185 22.081 23.9174 22.4608C23.9174 22.3743 23.9126 22.2925 23.9126 22.2108C23.9126 21.8069 23.9126 21.403 23.9126 20.999C23.9078 20.1768 23.8982 19.3497 23.8789 18.5275C23.8597 17.7196 23.826 16.9118 23.7826 16.1039C23.7586 15.6856 23.7345 15.2673 23.7008 14.8441C23.6864 14.6614 23.6767 14.469 23.6623 14.2815C24.033 15.0172 24.2015 15.8779 24.3026 16.7098L24.293 16.7146ZM23.3445 14.3296C23.359 14.5364 23.3831 14.7479 23.3927 14.9499C23.4168 15.3346 23.4408 15.7241 23.4601 16.1088C23.5034 16.9166 23.5323 17.7244 23.5467 18.5323C23.5612 19.3401 23.5612 20.1479 23.5419 20.9558C23.5323 21.3453 23.513 21.7299 23.4938 22.1194C23.4938 22.1291 23.4938 22.1339 23.4938 22.1435C23.4264 21.9848 23.359 21.8309 23.2868 21.6722C22.9835 21.0231 22.632 20.398 22.3817 19.7296C22.1265 19.0468 21.9869 18.3063 22.1121 17.5802C22.2373 16.8493 22.5694 16.1761 22.8727 15.5077C23.0461 15.1278 23.2242 14.7335 23.3445 14.3248V14.3296ZM30.8067 17.8543C31.2063 18.0466 31.5963 18.263 31.967 18.5082C32.6843 18.9795 33.3487 19.5757 33.8397 20.2826C34.273 20.9077 34.5811 21.6145 34.7256 22.3599C34.7978 22.7349 34.8267 23.1244 34.8026 23.5043C34.793 23.6822 34.7689 23.8601 34.7352 24.0332C34.5956 23.5957 34.3982 23.1677 34.2104 22.7686C33.9168 22.1387 33.5798 21.528 33.2091 20.9413C32.4773 19.7921 31.6059 18.739 30.6382 17.7773C30.696 17.8014 30.7489 17.8254 30.8067 17.8543ZM32.5591 20.6576C33.002 21.2779 33.4016 21.9319 33.7627 22.6051C33.9408 22.9417 34.1093 23.2831 34.2634 23.6341C34.3597 23.8457 34.4463 24.0621 34.5378 24.2737C33.2476 23.4033 31.9044 22.5282 30.8741 21.3549C30.359 20.773 29.9883 20.1047 29.8535 19.3353C29.7476 18.7438 29.8053 18.1572 29.8198 17.5706C30.8356 18.5034 31.7599 19.5324 32.5639 20.6576H32.5591ZM28.8088 14.7431C27.403 14.7239 26.0694 14.243 24.8033 13.6468C25.8624 13.9161 26.9601 14.0459 28.0529 14.0555C28.8088 14.0603 29.5646 14.0074 30.3108 13.892C31.0234 13.7814 31.7696 13.6372 32.4484 13.3823C31.5144 14.3392 30.1279 14.7624 28.8088 14.7431ZM27.8796 12.988C29.165 13.0265 30.4456 13.1178 31.7263 13.2236C31.2593 13.3583 30.7923 13.4881 30.306 13.5746C29.5598 13.7045 28.804 13.7718 28.0481 13.7766C26.7242 13.7766 25.4195 13.5698 24.1485 13.2044C25.3425 12.863 26.6664 12.9495 27.8796 12.988ZM37.7008 17.7052C37.7104 18.3255 37.6382 18.941 37.489 19.5373C37.3397 20.1383 37.099 20.7153 36.7861 21.2491C36.5839 21.6001 36.3384 21.9127 36.088 22.2204C36.2373 21.9848 36.3432 21.7107 36.4491 21.4607C36.5743 21.1577 36.685 20.8452 36.7861 20.5374C37.0172 19.8354 37.2146 19.1189 37.3734 18.3976C37.4842 17.8975 37.566 17.3974 37.6382 16.8925C37.6767 17.1618 37.696 17.4311 37.7008 17.7052ZM37.3734 16.4982C37.2964 17.0945 37.2001 17.6908 37.0749 18.2774C36.9305 18.9554 36.7524 19.6238 36.5406 20.2874C36.4346 20.6192 36.3191 20.9413 36.2036 21.2683C36.1747 21.3501 36.1458 21.4318 36.1121 21.5088C36.1121 21.4559 36.1121 21.3982 36.1025 21.3453C36.0447 20.725 35.881 20.1143 35.9532 19.4892C36.0784 18.3399 36.7331 17.4167 37.3734 16.4982ZM41.4463 18.3784C42.1155 19.0372 42.8906 19.6959 43.2421 20.5903C43.7187 21.8069 43.4202 23.0283 43.0543 24.2304C43.0206 23.9467 42.9821 23.663 42.934 23.3841C42.7414 22.3118 42.4092 21.2731 41.9807 20.273C41.533 19.2247 40.9745 18.2341 40.339 17.2917C40.7049 17.6571 41.0756 18.0226 41.4463 18.3832V18.3784ZM39.7661 17.0945C40.9938 18.8641 41.9615 20.8259 42.4236 22.9369C42.5536 23.5235 42.6355 24.1198 42.674 24.7209C42.6884 24.9517 42.6884 25.1777 42.6884 25.4085C42.5151 25.1248 42.3177 24.8603 42.1348 24.6199C41.6774 24.0188 41.1575 23.461 40.676 22.8792C40.2042 22.307 39.7469 21.6963 39.4725 20.999C39.1595 20.2104 39.1547 19.369 39.2125 18.5371C39.2414 18.0562 39.2895 17.5706 39.2943 17.0849C39.2943 16.8685 39.2943 16.6377 39.2799 16.4165C39.4484 16.6377 39.6073 16.8637 39.7661 17.0945ZM54.7771 25.8557C54.3102 25.6008 53.8143 25.3989 53.3184 25.2065C52.293 24.8122 51.2242 24.4852 50.295 23.889C48.6822 22.8551 48.0516 21.0279 47.2428 19.393C46.925 18.7535 46.5639 18.0755 46.0729 17.5369C49.207 19.9556 52.0089 22.7734 54.6905 25.673C54.7771 25.7643 54.8638 25.8557 54.9505 25.9519C54.8927 25.9182 54.8301 25.8845 54.7771 25.8557ZM55.4704 26.274C54.9553 25.6056 54.3968 24.9709 53.8384 24.3362C53.1307 23.5332 52.4133 22.7446 51.6623 21.98C50.1843 20.4701 48.6245 19.0324 46.9828 17.7052C46.8961 17.6379 46.8095 17.5706 46.7228 17.5032C46.7228 17.5032 46.7276 17.5032 46.7324 17.5032C47.2716 17.71 47.8108 17.9168 48.35 18.1235C49.3996 18.5275 50.4491 18.9314 51.4312 19.4795C53.1307 20.4268 54.4498 21.8838 55.0997 23.7255C55.3934 24.5622 55.5137 25.4229 55.5041 26.3029C55.4897 26.2933 55.48 26.2836 55.4656 26.274H55.4704Z" stroke="#E7E0DC" stroke-width="0.4" mask="url(#path-1-outside-1_102_306)"/>
</svg>
