<svg width="48" height="48" viewBox="0 0 48 48" fill="none" xmlns="http://www.w3.org/2000/svg">
<g clip-path="url(#clip0_224_1648)">
<path d="M24.0028 48C10.7673 48 0 37.2327 0 24.0028C0 10.7673 10.7673 0 24.0028 0C37.2384 0 48.0057 10.7673 48.0057 24.0028C48 37.2327 37.2327 48 24.0028 48ZM24.0028 0.690647C11.1523 0.690647 0.696309 11.1466 0.696309 23.9972C0.696309 36.8477 11.1523 47.3037 24.0028 47.3037C36.8534 47.3037 47.3094 36.8477 47.3094 23.9972C47.3094 11.1466 36.8534 0.690647 24.0028 0.690647Z" fill="white"/>
<path d="M25.4918 34.0513H25.4182L25.3842 34.1136C24.9143 34.9967 24.1784 35.4439 23.1934 35.4439H23.1707H23.1481C20.7308 35.4439 17.906 33.7286 17.3568 30.8585C17.3229 30.683 17.3002 30.5075 17.2832 30.332C17.2776 30.2697 17.2719 30.2074 17.2719 30.1452C17.2663 30.0376 17.2606 29.9301 17.2606 29.8282C17.2606 29.7546 17.2606 29.681 17.2663 29.6017C17.3059 28.6393 17.572 27.4958 18.0645 26.1938L19.1627 23.301L19.1853 23.2387L19.1401 23.1877C19.1118 23.1538 19.0778 23.1142 19.0495 23.0802L19.0438 23.0745L18.9136 22.916L18.84 23.1085L17.7078 26.0862C17.1983 27.4109 16.9266 28.6054 16.8926 29.6357C16.8926 29.7149 16.887 29.7885 16.887 29.8621C16.887 29.9697 16.8926 30.0886 16.8983 30.2018C16.9039 30.2641 16.9039 30.3263 16.9153 30.3943C16.9323 30.5811 16.9606 30.7622 16.9945 30.9377C17.2606 32.3247 18.0531 33.5758 19.2306 34.4645C20.4081 35.3533 21.9253 35.8458 23.5047 35.8458H24.9256H25.0049L25.0389 35.7779L25.7295 34.2324L25.8031 34.0626H25.6163H25.4918V34.0513Z" fill="white"/>
<path d="M41.2293 35.4721C41.218 35.4721 41.2067 35.4721 41.1954 35.4721C41.1784 35.4721 41.1557 35.4721 41.1274 35.4721C40.7878 35.4721 40.5274 35.2626 40.3575 34.8494L33.4114 16.802C33.3378 16.6321 33.3378 16.4906 33.4001 16.3944C33.5077 16.2302 33.8077 16.1736 34.0285 16.1736H34.1474V16.0547V15.9302V15.8113H34.0285H31.2489H31.13V15.9302V16.0547V16.1736H31.2489C31.6169 16.1736 31.8886 16.2981 32.1943 16.9435L27.1616 29.1544L22.412 16.802C22.3384 16.6321 22.3384 16.4906 22.4007 16.3944C22.5083 16.2302 22.8083 16.1736 23.0291 16.1736H23.148V16.0547V15.9302V15.8113H23.0291H20.2438H20.125V15.9302V16.0547V16.1736H20.2438C20.6118 16.1736 20.8835 16.2981 21.1892 16.9435L19.706 20.844L19.6777 20.9175L19.74 20.9742L19.774 21.0081C19.7966 21.0251 19.8193 21.0477 19.8362 21.0647L19.9664 21.1893L20.0287 21.0194L21.3817 17.4473L28.2769 34.94C28.3391 35.0871 28.3448 35.206 28.2882 35.2853C28.1919 35.4268 27.9202 35.4664 27.7844 35.4664H27.6655V35.5853V35.7099V35.8287H27.7844H30.3884H30.5073V35.7212V35.5966V35.4778H30.3998C30.3884 35.4778 30.3771 35.4778 30.3601 35.4778C30.3431 35.4778 30.3148 35.4778 30.2865 35.4778C29.9525 35.4778 29.6921 35.2683 29.5223 34.855L27.3654 29.6469L32.3868 17.453L39.1121 34.9456C39.1744 35.0928 39.18 35.2117 39.1234 35.2909C39.0272 35.4325 38.7555 35.4721 38.6196 35.4721H38.5007V35.591V35.7155V35.8344H38.6196H41.2237H41.3426V35.7212V35.5966V35.4778H41.2293V35.4721Z" fill="white"/>
<path d="M10.9825 17.1927C11.9619 18.0588 13.3205 18.8004 14.866 19.6213C16.5133 20.4931 17.7588 21.3479 18.6815 22.2423C18.7494 22.3103 18.823 22.3782 18.8853 22.4461C18.9532 22.5141 19.0212 22.5877 19.0891 22.6613C19.1231 22.6952 19.1514 22.7349 19.1853 22.7688C19.2533 22.8481 19.3156 22.9217 19.3778 23.0009C19.4458 23.0858 19.508 23.1708 19.5646 23.25C20.1817 24.0992 20.493 24.988 20.493 25.8767C20.493 27.6826 19.4231 29.1771 17.6342 29.8734L17.555 29.9017V29.9867C17.555 30.0546 17.5606 30.1282 17.5663 30.2074L17.5776 30.3603L17.7248 30.3093C18.8457 29.93 19.8024 29.296 20.4874 28.4638C21.2063 27.5977 21.5856 26.5561 21.5856 25.4635C21.5856 24.1331 21.1327 22.9613 20.21 21.8857C20.1477 21.8121 20.0741 21.7329 20.0062 21.6593C19.9383 21.5857 19.8703 21.5177 19.7967 21.4441C19.7628 21.4102 19.7288 21.3762 19.6948 21.3479C19.6269 21.28 19.5533 21.212 19.4797 21.1498C19.4118 21.0875 19.3382 21.0196 19.2589 20.9573C18.2343 20.0855 16.9323 19.3099 15.7944 18.6532C15.4377 18.4494 15.0754 18.2457 14.7244 18.0532C13.6092 17.4361 12.5619 16.8587 11.7864 16.1737C10.9315 15.4151 10.5296 14.6396 10.5296 13.7338C10.5296 11.9959 11.7071 10.9599 13.6772 10.9599C14.9622 10.9599 16.3039 11.3505 17.9003 12.1827C18.6136 12.5563 18.9419 13.1111 18.908 13.8753L18.9023 13.9999H19.0268H19.1514H19.2703V13.8697V12.0015V11.9053L19.174 11.8826C18.7664 11.7921 16.485 11.0505 16.2416 10.9655C14.832 10.4957 14.1187 10.4561 13.4507 10.4561C12.2506 10.4561 11.2259 10.8014 10.49 11.4524C9.75971 12.0978 9.37476 12.9865 9.37476 14.0225C9.38608 15.2283 9.88991 16.2303 10.9825 17.1927Z" fill="white"/>
<path d="M16.6152 30.2981L16.6039 30.1679L16.4737 30.1906C16.0887 30.2585 15.6924 30.2868 15.2962 30.2868C12.8563 30.2868 10.4277 28.9225 8.81427 26.6354L8.78031 26.5845H8.71803H8.59349H8.47461V26.7034V29.8056V29.9245H8.59349H8.71803H8.81993L8.83692 29.8283L8.8539 29.7433C8.9558 29.1489 9.05204 28.7583 9.43699 28.7583C9.55587 28.7583 9.66343 28.7696 9.92384 28.9338C11.775 30.0717 13.2016 30.6887 15.432 30.6887C15.8 30.6887 16.1736 30.6604 16.5359 30.6038L16.6492 30.5868L16.6378 30.4736C16.6209 30.4113 16.6209 30.3547 16.6152 30.2981Z" fill="white"/>
</g>
<defs>
<clipPath id="clip0_224_1648">
<rect width="48" height="48" fill="white"/>
</clipPath>
</defs>
</svg>
